<?xml version="1.0" standalone="no"?>
<!DOCTYPE svg PUBLIC "-//W3C//DTD SVG 20010904//EN"
 "http://www.w3.org/TR/2001/REC-SVG-20010904/DTD/svg10.dtd">
<svg version="1.0" xmlns="http://www.w3.org/2000/svg"
 width="1080.000000pt" height="1080.000000pt" viewBox="0 0 1080.000000 1080.000000"
 preserveAspectRatio="xMidYMid meet">

<g transform="translate(0.000000,1080.000000) scale(0.100000,-0.100000)"
fill="#000000" stroke="none">
<path d="M6190 8778 c0 -3 -15 -11 -33 -17 -19 -7 -40 -23 -47 -36 -7 -14 -19
-25 -26 -25 -17 0 -82 -76 -103 -120 -9 -19 -18 -37 -21 -40 -3 -3 -12 -24
-20 -48 -12 -39 -12 -44 6 -58 21 -17 26 -17 -171 6 -143 16 -411 12 -582 -10
-87 -11 -177 -22 -200 -25 -25 -2 -43 0 -43 5 0 6 7 10 16 10 12 0 14 3 6 13
-10 12 -12 18 -12 36 0 5 -14 22 -31 39 -21 20 -27 32 -19 37 8 5 4 11 -12 19
-12 6 -24 22 -26 34 -2 13 -11 26 -20 29 -16 6 -37 23 -86 71 -13 12 -28 22
-33 22 -6 0 -16 7 -23 15 -7 8 -27 15 -46 15 -63 0 -264 -63 -404 -127 -103
-47 -123 -58 -159 -86 -29 -23 -42 -27 -66 -22 -75 17 -75 13 5 -27 114 -58
218 -123 382 -240 175 -125 386 -297 363 -298 -9 0 -50 32 -97 76 -9 9 -21 13
-27 9 -6 -3 -11 0 -11 7 0 20 -57 52 -64 36 -3 -7 -3 -2 1 12 5 20 3 23 -8 14
-13 -9 -26 -11 -46 -4 -5 1 3 6 17 11 22 8 21 8 -7 4 -21 -3 -38 1 -48 12 -15
15 -18 14 -33 -2 -16 -17 -16 -17 1 -12 21 8 22 -6 2 -23 -8 -7 -15 -20 -15
-30 0 -10 -9 -24 -20 -31 -19 -13 -20 -18 -9 -74 6 -33 17 -67 25 -76 12 -14
13 -18 2 -23 -10 -5 -10 -7 0 -12 13 -6 7 -24 -9 -24 -6 0 -7 5 -3 12 5 8 2 9
-9 5 -10 -3 -17 -2 -17 4 0 5 7 12 15 15 8 4 15 10 15 16 0 5 -13 0 -30 -12
-18 -13 -30 -17 -30 -9 0 9 -4 8 -15 -1 -12 -10 -22 -7 -52 15 -21 16 -49 40
-63 54 -55 58 -364 291 -385 291 -2 0 -23 13 -47 29 -54 36 -250 130 -348 167
-67 25 -88 28 -205 28 l-130 1 -83 -39 c-67 -32 -96 -54 -157 -118 -41 -43
-75 -76 -75 -74 0 14 35 67 60 91 16 16 30 33 30 38 0 4 -7 1 -16 -7 -23 -24
-38 -19 -15 5 24 26 34 60 16 53 -18 -7 -57 45 -50 68 5 14 1 18 -19 18 -14 0
-28 5 -31 10 -4 6 -16 8 -28 5 -12 -2 -16 -2 -9 1 20 9 14 23 -8 17 -11 -3
-20 -9 -20 -14 0 -5 -9 -9 -20 -9 -11 0 -20 -5 -20 -11 0 -6 -6 -9 -14 -6 -8
3 -20 0 -26 -8 -7 -8 -21 -17 -33 -21 -33 -10 -110 -68 -161 -119 -25 -26 -46
-42 -46 -37 0 6 5 14 10 17 6 3 10 11 10 17 0 6 -11 1 -25 -12 -26 -24 -35
-57 -12 -44 7 5 7 1 -3 -12 -22 -29 -24 -30 -17 -11 4 9 3 17 -1 17 -14 0 -40
-37 -53 -76 -7 -22 -16 -43 -20 -49 -3 -5 -10 -28 -14 -50 -4 -22 -11 -45 -17
-52 -5 -7 -7 -17 -3 -23 4 -6 2 -17 -4 -24 -27 -32 -20 -405 8 -440 5 -6 12
-31 16 -56 4 -25 11 -49 15 -55 4 -5 14 -37 21 -70 7 -33 16 -65 21 -71 4 -6
9 -47 10 -91 3 -78 2 -81 -34 -129 -52 -68 -51 -67 -67 -94 -32 -56 -61 -114
-61 -122 0 -11 -52 -121 -60 -128 -4 -3 -12 -21 -19 -40 -7 -19 -24 -57 -37
-85 -13 -27 -28 -69 -34 -92 -6 -23 -17 -54 -25 -70 -8 -15 -15 -36 -15 -45 0
-10 -4 -18 -10 -18 -5 0 -10 -8 -10 -17 0 -10 -11 -40 -24 -68 -40 -84 -56
-122 -56 -137 0 -7 -9 -26 -20 -43 -11 -16 -20 -42 -20 -57 0 -16 -4 -28 -8
-28 -5 0 -14 -39 -21 -87 -7 -49 -16 -95 -21 -104 -5 -9 -12 -69 -16 -133 -4
-64 -11 -119 -15 -122 -12 -7 -12 -401 0 -408 4 -3 11 -63 15 -133 4 -70 11
-132 15 -138 4 -5 14 -62 21 -125 7 -63 16 -119 20 -125 4 -5 11 -30 15 -55 4
-24 11 -51 15 -60 4 -8 13 -44 20 -80 6 -36 16 -66 21 -68 4 -2 11 -26 15 -53
4 -27 10 -49 13 -49 4 0 13 -24 20 -52 11 -46 23 -78 51 -138 4 -9 11 -31 15
-50 4 -19 13 -46 20 -60 29 -58 55 -118 55 -128 0 -6 13 -37 29 -69 16 -32 50
-101 75 -153 l46 -95 -11 -175 c-6 -96 -16 -181 -22 -188 -14 -18 -16 -450 -2
-460 6 -4 17 -47 24 -97 7 -49 16 -94 21 -100 4 -5 11 -27 15 -48 4 -20 11
-37 15 -37 4 0 12 -24 19 -54 13 -60 37 -111 75 -161 14 -18 26 -36 26 -40 0
-8 147 -155 156 -155 3 0 30 -20 58 -45 29 -25 60 -45 68 -45 8 0 25 -11 38
-25 13 -14 30 -25 37 -25 8 0 33 -9 55 -20 23 -11 46 -20 50 -20 5 0 29 -9 54
-20 25 -12 74 -24 110 -27 35 -3 67 -10 70 -14 7 -12 251 -12 258 0 3 4 38 11
78 15 40 4 82 13 94 21 11 7 37 17 58 20 20 4 36 10 36 14 0 4 17 13 37 20 42
15 143 81 143 93 0 4 6 8 13 8 13 0 167 150 167 163 0 23 89 85 99 68 3 -5 40
-10 81 -12 70 -4 79 -7 121 -42 26 -20 52 -37 58 -37 7 0 24 -9 38 -20 14 -11
31 -20 38 -20 7 0 37 -13 68 -30 31 -16 63 -30 71 -30 7 0 19 -6 25 -14 7 -8
31 -18 54 -21 23 -4 47 -11 52 -15 18 -13 102 -30 149 -30 25 0 46 -4 46 -9 0
-5 30 -12 68 -16 37 -3 74 -10 83 -14 8 -5 139 -14 290 -21 212 -10 323 -10
489 -1 118 7 217 16 220 20 3 5 34 12 70 16 36 4 70 11 75 15 6 4 38 13 73 20
34 7 62 16 62 20 0 4 16 11 36 15 20 3 44 10 53 15 9 5 51 14 94 21 43 6 80
15 82 20 3 4 30 11 60 14 30 4 55 11 55 15 0 4 45 10 100 14 103 6 106 5 190
-44 34 -20 130 -60 144 -60 9 0 16 -4 16 -8 0 -4 17 -14 38 -21 37 -12 60 -21
117 -46 17 -7 53 -19 80 -26 28 -6 55 -15 60 -20 6 -4 37 -10 70 -14 33 -4 65
-11 71 -16 15 -12 181 -29 292 -29 94 0 182 15 182 31 0 5 7 9 16 9 22 0 124
50 124 61 0 5 6 9 13 9 16 0 157 141 157 157 0 7 6 16 13 20 8 4 17 15 20 23
4 8 20 38 36 65 58 100 121 235 121 259 0 8 4 17 9 20 5 3 12 23 16 43 4 21
11 40 16 43 19 12 30 241 18 385 -6 77 -15 145 -20 150 -4 6 -11 39 -15 75 -3
36 -11 70 -16 77 -13 17 -15 197 -2 214 6 8 14 28 18 44 10 42 69 160 87 175
3 3 12 22 19 43 7 22 18 51 26 65 8 15 14 35 14 45 0 9 4 17 9 17 5 0 13 15
16 33 4 17 13 43 20 57 30 62 45 97 51 123 3 15 9 27 13 27 5 0 13 25 20 55 7
30 17 55 22 55 5 0 9 7 9 16 0 9 7 30 15 47 8 18 19 61 24 95 6 35 14 69 20
75 5 7 12 35 16 62 3 28 10 59 15 70 11 26 30 153 30 199 0 19 4 37 9 40 5 3
12 48 15 98 4 51 11 102 16 113 14 33 30 195 30 310 0 127 -19 338 -31 345 -4
3 -11 41 -14 85 -4 44 -10 89 -15 100 -4 11 -13 63 -20 115 -7 52 -16 100 -20
105 -4 6 -10 32 -14 59 -3 27 -10 54 -15 60 -4 6 -14 40 -20 76 -7 35 -19 73
-27 84 -8 11 -14 33 -14 48 0 16 -4 28 -8 28 -5 0 -15 26 -22 58 -7 31 -16 62
-20 67 -5 6 -11 27 -15 48 -4 20 -11 37 -15 37 -4 0 -11 16 -15 36 -3 20 -15
53 -26 73 -10 20 -19 43 -19 53 0 9 -16 43 -35 75 -19 32 -35 61 -35 66 0 4
-13 25 -29 48 -16 22 -33 55 -37 72 -3 18 -13 41 -20 52 -8 11 -14 29 -14 40
0 12 -5 26 -12 33 -9 9 -9 17 1 36 18 32 22 616 5 637 -6 8 -14 52 -17 99 -6
73 -13 97 -53 180 -42 85 -59 107 -160 208 -65 64 -122 112 -133 112 -10 0
-24 6 -30 14 -7 8 -25 18 -41 21 -16 3 -34 12 -40 20 -6 8 -26 17 -43 21 -18
3 -38 11 -45 17 -19 15 -169 1 -239 -23 -34 -12 -91 -40 -125 -62 -57 -37
-281 -251 -352 -338 -16 -19 -57 -66 -91 -105 -34 -38 -73 -83 -87 -100 -14
-16 -72 -84 -129 -150 -57 -66 -126 -147 -154 -180 -27 -33 -60 -71 -71 -85
-109 -127 -237 -284 -273 -334 -46 -62 -200 -260 -304 -389 -77 -96 -162 -206
-217 -282 -68 -93 -200 -246 -200 -232 0 8 39 67 51 77 3 3 14 20 25 39 14 25
16 35 7 38 -10 4 -9 10 2 26 8 12 15 30 15 40 0 26 28 32 51 11 21 -18 21 -18
8 9 -7 15 -19 27 -26 27 -9 0 -11 5 -6 13 4 6 6 20 5 29 -4 24 -70 88 -91 88
-9 0 -22 9 -29 20 -7 11 -19 20 -27 20 -8 0 -15 4 -15 9 0 5 -9 7 -20 4 -11
-3 -20 0 -20 6 0 6 -16 11 -36 11 -27 0 -37 5 -41 20 -4 15 -14 20 -40 20 -30
0 -34 2 -23 15 9 10 9 15 1 15 -6 0 -11 8 -11 17 0 20 -13 9 -17 -15 -1 -9 -7
-30 -13 -47 -10 -29 -10 -29 -6 -2 2 15 0 27 -5 27 -8 0 -15 -6 -74 -76 -22
-26 -55 -63 -73 -82 -18 -19 -36 -41 -41 -49 -5 -9 -11 -11 -14 -6 -4 5 9 25
28 44 19 19 35 39 35 46 0 7 6 16 13 20 15 10 130 149 172 208 17 24 41 56 55
72 14 16 46 56 72 89 44 58 62 79 154 185 23 26 57 69 75 96 47 68 129 174
156 200 12 12 31 36 42 55 21 34 70 92 158 185 28 30 52 58 53 61 2 12 137
166 177 202 21 19 45 44 53 55 22 29 150 147 198 181 210 150 282 190 409 230
51 16 93 32 93 37 0 11 -35 8 -48 -5 -8 -8 -50 -12 -121 -12 l-110 -1 -33 33
c-19 17 -39 32 -45 32 -6 0 -16 7 -23 15 -7 8 -31 20 -54 26 -22 6 -68 24
-102 40 -33 16 -67 29 -75 29 -8 0 -26 6 -40 14 -14 7 -43 16 -64 20 -21 4
-47 13 -59 21 -12 7 -43 15 -70 19 -27 3 -56 12 -64 19 -16 13 -162 27 -162
15z m-1570 -724 c0 -8 -4 -12 -10 -9 -5 3 -10 10 -10 16 0 5 5 9 10 9 6 0 10
-7 10 -16z m-45 -4 c3 -5 1 -10 -4 -10 -6 0 -11 5 -11 10 0 6 2 10 4 10 3 0 8
-4 11 -10z m-191 -216 c9 -3 16 -12 16 -20 0 -7 6 -11 13 -8 16 6 39 -18 35
-37 -2 -8 5 -13 16 -12 13 1 15 -2 7 -10 -14 -14 -42 9 -34 30 4 11 2 14 -8
11 -15 -6 -69 28 -69 43 0 11 3 11 24 3z m-944 -849 c0 -5 -11 4 -25 19 -14
15 -25 32 -25 37 0 6 11 -3 25 -19 14 -17 25 -33 25 -37z m99 -110 c45 -53
359 -399 486 -535 121 -129 188 -204 235 -259 58 -69 283 -312 380 -410 67
-68 210 -222 373 -400 32 -35 56 -65 54 -67 -7 -7 -93 75 -169 160 -45 50
-149 163 -232 250 -83 87 -156 164 -161 170 -6 6 -53 58 -105 116 -53 58 -109
120 -125 139 -95 109 -264 292 -395 430 -67 70 -191 209 -235 266 -22 27 -49
59 -61 70 -29 27 -124 143 -124 150 0 6 41 -35 79 -80z m1751 -369 c0 -3 -4
-8 -10 -11 -5 -3 -10 -1 -10 4 0 6 5 11 10 11 6 0 10 -2 10 -4z m560 -127 c0
-6 -4 -7 -10 -4 -5 3 -10 11 -10 16 0 6 5 7 10 4 6 -3 10 -11 10 -16z m-80
-159 c0 -5 -2 -10 -4 -10 -3 0 -8 5 -11 10 -3 6 -1 10 4 10 6 0 11 -4 11 -10z"/>
<path d="M5885 7203 l-17 -28 23 22 c12 12 20 25 17 28 -3 3 -13 -7 -23 -22z"/>
<path d="M5766 7072 c-2 -4 -1 -14 5 -22 7 -12 9 -10 9 8 0 23 -5 28 -14 14z"/>
<path d="M5680 6960 c-13 -16 -30 -30 -39 -30 -13 -1 -13 -2 2 -11 10 -6 20
-9 21 -7 30 41 47 70 44 74 -3 2 -15 -9 -28 -26z"/>
<path d="M5650 6890 c0 -5 5 -10 11 -10 5 0 7 5 4 10 -3 6 -8 10 -11 10 -2 0
-4 -4 -4 -10z"/>
<path d="M5606 6881 c-4 -7 -5 -15 -2 -18 9 -9 19 4 14 18 -4 11 -6 11 -12 0z"/>
<path d="M5956 6514 c-4 -10 -1 -14 6 -12 15 5 23 28 10 28 -5 0 -13 -7 -16
-16z"/>
<path d="M5870 6411 c0 -6 5 -13 10 -16 6 -3 10 1 10 9 0 9 -4 16 -10 16 -5 0
-10 -4 -10 -9z"/>
</g>
</svg>
